<?xml version="1.0" encoding="UTF-8"?>
<svg xmlns="http://www.w3.org/2000/svg" xmlns:xlink="http://www.w3.org/1999/xlink" width="30pt" height="30pt" viewBox="0 0 30 30" version="1.1">
<g id="surface1">
<path style=" stroke:none;fill-rule:nonzero;fill:rgb(0%,0%,0%);fill-opacity:1;" d="M 14.925781 2.167969 C 14.878906 2.253906 14.78125 2.289062 14.71875 2.253906 C 14.660156 2.203125 14.609375 2.242188 14.609375 2.324219 C 14.609375 2.445312 14.574219 2.445312 14.464844 2.335938 C 14.207031 2.082031 14.085938 2.179688 14.292969 2.496094 C 14.402344 2.652344 14.488281 2.875 14.488281 2.984375 C 14.488281 3.082031 14.574219 3.164062 14.671875 3.164062 C 14.78125 3.164062 14.855469 3.054688 14.855469 2.886719 C 14.855469 2.726562 14.914062 2.542969 14.988281 2.472656 C 15.0625 2.398438 15.097656 2.265625 15.074219 2.179688 C 15.035156 2.058594 15 2.058594 14.925781 2.167969 Z M 14.925781 2.167969 "/>
<path style=" stroke:none;fill-rule:nonzero;fill:rgb(0%,0%,0%);fill-opacity:1;" d="M 14.804688 3.738281 C 14.757812 3.796875 14.648438 3.835938 14.574219 3.835938 C 14.488281 3.835938 14.390625 4.054688 14.355469 4.320312 C 14.316406 4.589844 14.269531 4.734375 14.257812 4.640625 C 14.234375 4.394531 14.097656 4.566406 13.941406 5.054688 C 13.855469 5.273438 13.820312 5.734375 13.855469 6.074219 C 13.902344 6.585938 13.878906 6.695312 13.710938 6.695312 C 13.550781 6.695312 13.515625 6.5625 13.515625 6.027344 C 13.515625 5.515625 13.464844 5.355469 13.332031 5.355469 C 13.234375 5.355469 13.078125 5.164062 12.964844 4.917969 C 12.871094 4.675781 12.722656 4.503906 12.636719 4.527344 C 12.457031 4.589844 12.347656 5.234375 12.515625 5.234375 C 12.578125 5.234375 12.601562 5.550781 12.578125 5.929688 C 12.539062 6.585938 12.554688 6.609375 12.699219 6.292969 C 12.882812 5.929688 13.027344 5.976562 13.027344 6.417969 C 13.027344 6.671875 12.980469 6.695312 12.429688 6.695312 C 11.894531 6.695312 11.820312 6.734375 11.785156 6.964844 L 11.75 7.246094 L 8.742188 7.28125 L 5.722656 7.304688 L 5.722656 7.671875 C 5.722656 7.925781 5.785156 8.035156 5.917969 8.035156 C 6.039062 8.035156 6.085938 8.121094 6.0625 8.304688 C 6.027344 8.546875 5.941406 8.582031 5.394531 8.621094 L 4.75 8.65625 L 4.75 9.179688 C 4.75 9.546875 4.808594 9.742188 4.929688 9.789062 C 5.089844 9.851562 5.113281 10.386719 5.113281 13.636719 L 5.113281 17.410156 L 0.121094 17.410156 L 0.121094 18.871094 L 29.953125 18.871094 L 29.953125 17.410156 L 24.835938 17.410156 L 24.835938 13.574219 C 24.835938 10.25 24.863281 9.742188 25.019531 9.742188 C 25.152344 9.742188 25.203125 9.59375 25.203125 9.191406 L 25.203125 8.644531 L 24.535156 8.644531 C 23.898438 8.644531 23.863281 8.632812 23.863281 8.339844 C 23.863281 8.144531 23.9375 8.035156 24.046875 8.035156 C 24.167969 8.035156 24.230469 7.914062 24.230469 7.671875 L 24.230469 7.304688 L 18.273438 7.304688 L 18.238281 7.023438 C 18.203125 6.792969 18.117188 6.757812 17.570312 6.722656 C 16.910156 6.683594 16.828125 6.597656 16.996094 6.160156 C 17.09375 5.90625 17.289062 6.039062 17.289062 6.367188 C 17.289062 6.539062 17.324219 6.585938 17.410156 6.5 C 17.484375 6.429688 17.496094 6.171875 17.421875 5.808594 C 17.363281 5.480469 17.363281 5.234375 17.421875 5.234375 C 17.570312 5.234375 17.558594 4.664062 17.410156 4.566406 C 17.351562 4.527344 17.179688 4.675781 17.046875 4.917969 C 16.898438 5.148438 16.703125 5.371094 16.59375 5.40625 C 16.4375 5.464844 16.414062 5.601562 16.472656 6.085938 C 16.546875 6.648438 16.523438 6.695312 16.289062 6.695312 C 16.070312 6.695312 16.046875 6.648438 16.121094 6.195312 C 16.167969 5.929688 16.207031 5.671875 16.21875 5.625 C 16.230469 5.578125 16.167969 5.308594 16.082031 5.015625 C 15.9375 4.480469 15.765625 4.359375 15.667969 4.710938 C 15.632812 4.832031 15.609375 4.675781 15.597656 4.347656 C 15.597656 4.03125 15.535156 3.773438 15.460938 3.773438 C 15.402344 3.773438 15.339844 3.847656 15.339844 3.921875 C 15.339844 4.003906 15.28125 3.980469 15.207031 3.859375 C 15.074219 3.640625 14.953125 3.605469 14.804688 3.738281 Z M 15.339844 6.574219 C 15.339844 6.636719 15.183594 6.695312 14.976562 6.695312 C 14.78125 6.695312 14.609375 6.636719 14.609375 6.574219 C 14.609375 6.5 14.78125 6.453125 14.976562 6.453125 C 15.183594 6.453125 15.339844 6.5 15.339844 6.574219 Z M 8.644531 14.304688 L 8.644531 17.410156 L 6.378906 17.410156 L 6.34375 14.550781 C 6.332031 12.980469 6.34375 11.589844 6.390625 11.445312 C 6.464844 11.226562 6.574219 11.203125 7.5625 11.203125 L 8.644531 11.203125 Z M 12.054688 11.285156 C 12.054688 11.347656 12.066406 12.722656 12.066406 14.367188 L 12.078125 17.351562 L 10.96875 17.386719 L 9.863281 17.421875 L 9.863281 11.203125 L 10.957031 11.203125 C 11.566406 11.203125 12.054688 11.238281 12.054688 11.285156 Z M 16.558594 14.304688 L 16.558594 17.410156 L 13.394531 17.410156 L 13.394531 11.203125 L 16.558594 11.203125 Z M 20.089844 14.304688 L 20.089844 17.410156 L 17.898438 17.410156 L 17.898438 11.203125 L 20.089844 11.203125 Z M 23.5 14.304688 L 23.5 17.410156 L 21.308594 17.410156 L 21.308594 11.203125 L 23.5 11.203125 Z M 23.5 14.304688 "/>
<path style=" stroke:none;fill-rule:nonzero;fill:rgb(0%,0%,0%);fill-opacity:1;" d="M 8.972656 21.429688 C 8.816406 21.660156 8.777344 22.148438 8.765625 24.289062 C 8.765625 25.761719 8.816406 27.003906 8.875 27.199219 C 8.996094 27.503906 9.035156 27.515625 10.070312 27.515625 C 10.847656 27.515625 11.261719 27.457031 11.566406 27.296875 C 12.625 26.773438 12.734375 24.824219 11.726562 24.363281 C 11.394531 24.203125 11.382812 24.191406 11.640625 24.082031 C 12.015625 23.914062 12.234375 23.425781 12.234375 22.769531 C 12.234375 21.625 11.820312 21.292969 10.214844 21.210938 C 9.230469 21.160156 9.15625 21.171875 8.972656 21.429688 Z M 10.996094 22.246094 C 11.042969 22.269531 11.078125 22.546875 11.078125 22.851562 C 11.078125 23.523438 10.824219 23.863281 10.324219 23.863281 L 9.984375 23.863281 L 9.984375 23.035156 C 9.984375 22.574219 10.019531 22.160156 10.070312 22.109375 C 10.152344 22.039062 10.789062 22.121094 10.996094 22.246094 Z M 11.007812 24.984375 C 11.117188 25.128906 11.203125 25.445312 11.203125 25.691406 C 11.203125 26.3125 10.910156 26.664062 10.398438 26.664062 L 9.984375 26.664062 L 9.984375 24.714844 L 10.398438 24.714844 C 10.703125 24.714844 10.871094 24.800781 11.007812 24.984375 Z M 11.007812 24.984375 "/>
<path style=" stroke:none;fill-rule:nonzero;fill:rgb(0%,0%,0%);fill-opacity:1;" d="M 13.050781 21.332031 C 12.964844 21.417969 12.90625 21.597656 12.90625 21.757812 C 12.90625 22.28125 14.148438 27.152344 14.332031 27.332031 C 14.648438 27.648438 15.085938 27.6875 15.4375 27.429688 C 15.730469 27.210938 15.828125 26.917969 16.339844 24.703125 C 16.949219 22.085938 17.007812 21.5625 16.777344 21.332031 C 16.582031 21.136719 16.132812 21.148438 15.972656 21.332031 C 15.875 21.464844 15.28125 24.214844 15.0625 25.566406 C 15 25.996094 14.9375 25.800781 14.488281 23.621094 C 14.269531 22.585938 14.027344 21.609375 13.929688 21.453125 C 13.734375 21.160156 13.285156 21.101562 13.050781 21.332031 Z M 13.050781 21.332031 "/>
<path style=" stroke:none;fill-rule:nonzero;fill:rgb(0%,0%,0%);fill-opacity:1;" d="M 18.8125 21.355469 C 17.910156 21.746094 17.410156 22.878906 17.410156 24.535156 C 17.410156 25.714844 17.652344 26.640625 18.082031 27.066406 C 18.726562 27.699219 20.382812 27.785156 21.039062 27.210938 C 21.355469 26.945312 21.367188 26.871094 21.402344 25.566406 C 21.441406 24.644531 21.402344 24.167969 21.308594 24.046875 C 21.101562 23.789062 19.6875 23.789062 19.480469 24.046875 C 19.261719 24.3125 19.445312 24.691406 19.847656 24.777344 C 20.210938 24.863281 20.210938 24.863281 20.210938 25.761719 C 20.210938 26.652344 20.210938 26.664062 19.90625 26.664062 C 18.921875 26.664062 18.554688 25.910156 18.652344 24.105469 C 18.75 22.464844 19.140625 22.039062 20.34375 22.292969 C 21.039062 22.4375 21.308594 22.316406 21.308594 21.832031 C 21.308594 21.609375 21.195312 21.488281 20.878906 21.355469 C 20.355469 21.148438 19.296875 21.136719 18.8125 21.355469 Z M 18.8125 21.355469 "/>
</g>
</svg>
